<?xml version="1.0" encoding="UTF-8" standalone="no"?>
<!-- Created with Inkscape (http://www.inkscape.org/) -->

<svg
   width="99.585739mm"
   height="100.06744mm"
   viewBox="0 0 99.585738 100.06744"
   version="1.1"
   id="svg1"
   xml:space="preserve"
   sodipodi:docname="favicon-32.svg"
   inkscape:version="1.4 (e7c3feb1, 2024-10-09)"
   inkscape:export-filename="favicon-16x16.png"
   inkscape:export-xdpi="4.0809054"
   inkscape:export-ydpi="4.0809054"
   xmlns:inkscape="http://www.inkscape.org/namespaces/inkscape"
   xmlns:sodipodi="http://sodipodi.sourceforge.net/DTD/sodipodi-0.dtd"
   xmlns="http://www.w3.org/2000/svg"
   xmlns:svg="http://www.w3.org/2000/svg"><sodipodi:namedview
     id="namedview1"
     pagecolor="#ffffff"
     bordercolor="#111111"
     borderopacity="1"
     inkscape:showpageshadow="0"
     inkscape:pageopacity="0"
     inkscape:pagecheckerboard="1"
     inkscape:deskcolor="#d1d1d1"
     inkscape:document-units="mm"
     inkscape:zoom="0.95023878"
     inkscape:cx="97.343954"
     inkscape:cy="243.62298"
     inkscape:window-width="1512"
     inkscape:window-height="856"
     inkscape:window-x="161"
     inkscape:window-y="151"
     inkscape:window-maximized="0"
     inkscape:current-layer="layer1"
     showgrid="false"
     showguides="false"><inkscape:grid
       id="grid5"
       units="mm"
       originx="-40.436021"
       originy="-65.066123"
       spacingx="0.99999998"
       spacingy="1"
       empcolor="#0099e5"
       empopacity="0.30196078"
       color="#0099e5"
       opacity="0.14901961"
       empspacing="5"
       enabled="true"
       visible="false" /></sodipodi:namedview><defs
     id="defs1"><linearGradient
       id="swatch28"
       inkscape:swatch="solid"><stop
         style="stop-color:#000000;stop-opacity:1;"
         offset="0"
         id="stop28" /></linearGradient><inkscape:path-effect
       effect="bspline"
       id="path-effect1"
       is_visible="true"
       lpeversion="1.3"
       weight="33.333333"
       steps="2"
       helper_size="0"
       apply_no_weight="true"
       apply_with_weight="true"
       only_selected="false"
       uniform="false" /><filter
       style="color-interpolation-filters:sRGB"
       inkscape:label="Drop Shadow"
       id="filter34"
       x="-8.5711536"
       y="-1.538412"
       width="22.667997"
       height="4.8891273"><feFlood
         result="flood"
         in="SourceGraphic"
         flood-opacity="0.498039"
         flood-color="rgb(143,143,143)"
         id="feFlood33" /><feGaussianBlur
         result="blur"
         in="SourceGraphic"
         stdDeviation="4.700000"
         id="feGaussianBlur33" /><feOffset
         result="offset"
         in="blur"
         dx="6.000000"
         dy="6.000000"
         id="feOffset33" /><feComposite
         result="comp1"
         operator="in"
         in="flood"
         in2="offset"
         id="feComposite33" /><feComposite
         result="fbSourceGraphic"
         operator="over"
         in="SourceGraphic"
         in2="comp1"
         id="feComposite34" /><feColorMatrix
         result="fbSourceGraphicAlpha"
         in="fbSourceGraphic"
         values="0 0 0 -1 0 0 0 0 -1 0 0 0 0 -1 0 0 0 0 1 0"
         id="feColorMatrix34" /><feFlood
         id="feFlood34"
         result="flood"
         in="fbSourceGraphic"
         flood-opacity="0.498039"
         flood-color="rgb(143,143,143)" /><feGaussianBlur
         id="feGaussianBlur34"
         result="blur"
         in="fbSourceGraphic"
         stdDeviation="4.700000" /><feOffset
         id="feOffset34"
         result="offset"
         in="blur"
         dx="6.000000"
         dy="6.000000" /><feComposite
         id="feComposite35"
         result="comp1"
         operator="in"
         in="flood"
         in2="offset" /><feComposite
         id="feComposite36"
         result="fbSourceGraphic"
         operator="over"
         in="fbSourceGraphic"
         in2="comp1" /><feColorMatrix
         result="fbSourceGraphicAlpha"
         in="fbSourceGraphic"
         values="0 0 0 -1 0 0 0 0 -1 0 0 0 0 -1 0 0 0 0 1 0"
         id="feColorMatrix36" /><feFlood
         id="feFlood36"
         result="flood"
         in="fbSourceGraphic"
         flood-opacity="0.498039"
         flood-color="rgb(143,143,143)" /><feGaussianBlur
         id="feGaussianBlur36"
         result="blur"
         in="fbSourceGraphic"
         stdDeviation="4.700000" /><feOffset
         id="feOffset36"
         result="offset"
         in="blur"
         dx="6.000000"
         dy="6.000000" /><feComposite
         id="feComposite37"
         result="comp1"
         operator="in"
         in="flood"
         in2="offset" /><feComposite
         id="feComposite38"
         result="comp2"
         operator="over"
         in="fbSourceGraphic"
         in2="comp1" /></filter><filter
       inkscape:collect="always"
       style="color-interpolation-filters:sRGB"
       id="filter107-1"
       x="-0.13667493"
       y="-0.13667493"
       width="1.2733499"
       height="1.2733499"><feGaussianBlur
         inkscape:collect="always"
         stdDeviation="0.1993176"
         id="feGaussianBlur107-3" /></filter></defs><g
     inkscape:label="Layer 1"
     inkscape:groupmode="layer"
     id="layer1"
     transform="translate(-40.436021,-65.066127)"><path
       style="font-variation-settings:normal;opacity:1;fill:none;fill-opacity:1;stroke:#000000;stroke-width:2;stroke-linecap:round;stroke-linejoin:round;stroke-miterlimit:4;stroke-dasharray:none;stroke-dashoffset:0;stroke-opacity:1"
       d="m 360.00001,490.00004 v 35.00001 l 5.00001,4.99999 v 20.00002"
       id="path80" /><path
       style="font-variation-settings:normal;opacity:1;fill:none;fill-opacity:1;stroke:#000000;stroke-width:2;stroke-linecap:round;stroke-linejoin:round;stroke-miterlimit:4;stroke-dasharray:none;stroke-dashoffset:0;stroke-opacity:1"
       d="m 355.00002,475.00005 v 75.00001 l 4.99999,10 v 19.99999"
       id="path81" /><path
       style="font-variation-settings:normal;opacity:1;fill:none;fill-opacity:1;stroke:#000000;stroke-width:2;stroke-linecap:round;stroke-linejoin:round;stroke-miterlimit:4;stroke-dasharray:none;stroke-dashoffset:0;stroke-opacity:1"
       d="M 355.00002,455.00003 350,465.00004 v 90.00001 l 5.00002,5.00001 v 19.99999"
       id="path82" /><path
       style="font-variation-settings:normal;opacity:1;fill:none;fill-opacity:1;stroke:#000000;stroke-width:2;stroke-linecap:round;stroke-linejoin:round;stroke-miterlimit:4;stroke-dasharray:none;stroke-dashoffset:0;stroke-opacity:1"
       d="m 345.00001,480.00004 v 90"
       id="path83" /><path
       style="font-variation-settings:normal;opacity:1;fill:none;fill-opacity:1;stroke:#000000;stroke-width:2;stroke-linecap:round;stroke-linejoin:round;stroke-miterlimit:4;stroke-dasharray:none;stroke-dashoffset:0;stroke-opacity:1"
       d="m 340.00002,485.00005 v 34.99999"
       id="path84" /><path
       style="font-variation-settings:normal;opacity:1;fill:none;fill-opacity:1;stroke:#000000;stroke-width:2;stroke-linecap:round;stroke-linejoin:round;stroke-miterlimit:4;stroke-dasharray:none;stroke-dashoffset:0;stroke-opacity:1"
       d="m 275.00001,530.00004 45,-44.99999 -30,-30.00002 -15,15"
       id="path85" /><path
       style="font-variation-settings:normal;opacity:1;fill:none;fill-opacity:1;stroke:#000000;stroke-width:2;stroke-linecap:round;stroke-linejoin:round;stroke-miterlimit:4;stroke-dasharray:none;stroke-dashoffset:0;stroke-opacity:1"
       d="m 272.21024,465.00004 20.26218,-20.00001 37.52759,40.00002"
       id="path86" /><path
       style="font-variation-settings:normal;opacity:1;fill:none;fill-opacity:1;stroke:#000000;stroke-width:2;stroke-linecap:round;stroke-linejoin:round;stroke-miterlimit:4;stroke-dasharray:none;stroke-dashoffset:0;stroke-opacity:1"
       d="m 270.00001,435.00005 15,-15.00002 v -4.99999"
       id="path87" /><path
       style="font-variation-settings:normal;opacity:1;fill:none;fill-opacity:1;stroke:#000000;stroke-width:2;stroke-linecap:round;stroke-linejoin:round;stroke-miterlimit:4;stroke-dasharray:none;stroke-dashoffset:0;stroke-opacity:1"
       d="m 265.00001,430.00003 15,-14.99999"
       id="path88" /><path
       style="font-variation-settings:normal;vector-effect:none;fill:#d5daf4;fill-opacity:1;stroke:#d5daf4;stroke-width:0.600001;stroke-linecap:round;stroke-linejoin:round;stroke-miterlimit:4;stroke-dasharray:none;stroke-dashoffset:0;stroke-opacity:0.706806;-inkscape-stroke:none"
       d="m 113.3477,71.470486 c 5.66824,1.792694 12.42739,6.944087 20.42973,19.927381 6.73792,10.931843 6.14573,21.321393 5.67556,28.960873 -0.63905,10.38345 -2.60175,15.73445 -8.65538,19.92746 -4.5431,3.14676 -13.08782,6.10434 -23.35026,4.69391 -0.32562,-0.0447 -8.437529,-16.0258 -5.98041,-42.91976 0.36995,-4.049193 -9.215007,-8.763703 -8.557993,-12.167203 1.70666,-8.840945 16.358593,-19.71309 20.438753,-18.422661 z"
       id="path62"
       sodipodi:nodetypes="ssssssss" /><path
       style="font-variation-settings:normal;vector-effect:none;fill:#5867c3;fill-opacity:1;stroke:#2f3980;stroke-width:0.600001;stroke-linecap:round;stroke-linejoin:round;stroke-miterlimit:4;stroke-dasharray:none;stroke-dashoffset:0;stroke-opacity:0.4;-inkscape-stroke:none;stop-color:#000000"
       d="m 68.745792,71.384988 c -2.176857,-0.412307 -12.200941,2.387205 -21.710429,20.374099 -14.036722,26.550013 -1.591169,49.558483 8.029954,58.650473 0.952174,-3.51193 0.09195,-9.37979 -0.171687,-12.9187 C 53.561093,119.6036 47.177827,112.58337 54.9132,102.37584 62.735534,92.053537 89.483356,100.51863 87.691411,90.135907 84.991367,74.491575 71.74751,71.953528 68.745792,71.384988 Z"
       id="path62-1"
       sodipodi:nodetypes="sscssss" /><path
       style="opacity:0.8;fill:none;fill-opacity:1;stroke:#2f3a80;stroke-width:1;stroke-linecap:round;stroke-linejoin:round;stroke-dasharray:none;stroke-opacity:1"
       d="m 68.998809,96.410537 c 0,0 0.429878,-0.20868 -1.496413,-0.0646 -1.344362,0.10054 -4.450778,0.65967 -9.091685,3.28566 -5.502752,3.113663 -9.376627,10.677343 -5.767324,22.658423 2.884144,9.57391 3.047884,8.49087 5.17738,17.25938 2.129496,8.76852 0.09222,12.86501 0.09222,12.86501"
       id="path14"
       sodipodi:nodetypes="cssssc" /><path
       style="fill:none;fill-opacity:1;stroke:#2f3a80;stroke-width:1.2;stroke-linecap:round;stroke-linejoin:round;stroke-dasharray:none;stroke-opacity:1"
       d="m 82.306601,94.660397 c 0,0 -3.336259,0.89131 -5.832684,1.20408 -2.915911,0.36532 -7.79069,0.31138 -10.22114,0.78686 -5.379799,1.28528 -8.401382,3.33776 -11.133839,7.786203 -3.789196,6.10599 -2.250699,14.44401 1.413139,24.70357 1.072378,3.0029 3.091995,9.24407 4.263757,12.81011 2.153746,6.55453 1.769491,8.87081 1.654959,10.47324"
       id="path13"
       sodipodi:nodetypes="csssssc" /><path
       style="opacity:0.8;fill:none;fill-opacity:1;stroke:#2f3a80;stroke-width:1;stroke-linecap:round;stroke-linejoin:round;stroke-dasharray:none;stroke-opacity:1"
       d="m 67.021126,96.584207 c -1.836912,0.29746 -3.28664,0.90845 -3.450312,0.99141 -7.518381,3.811093 -9.903018,11.808573 -8.520817,20.470323 0.748038,4.68768 5.260193,16.30352 8.681143,24.16669 0.665305,1.52922 2.548764,5.331 2.725575,9.61595"
       id="path12"
       sodipodi:nodetypes="csssc" /><path
       style="opacity:0.5;fill:none;fill-opacity:1;stroke:#2f3980;stroke-width:0.8;stroke-linecap:round;stroke-linejoin:round;stroke-dasharray:none;stroke-dashoffset:0;stroke-opacity:0.8"
       d="m 69.76606,151.20248 c 0.404151,-0.20207 -1.075995,-4.09963 -2.514592,-7.35116 -3.316477,-7.49592 -10.821171,-17.92174 -12.290061,-26.5479"
       id="path21"
       sodipodi:nodetypes="csc" /><path
       style="font-variation-settings:normal;vector-effect:none;fill:#a4aee7;fill-opacity:1;stroke:none;stroke-width:0.5;stroke-linecap:round;stroke-linejoin:round;stroke-miterlimit:4;stroke-dasharray:none;stroke-dashoffset:0;stroke-opacity:0.8;-inkscape-stroke:none;stop-color:#000000"
       d="m 57.160404,152.57154 c 0,0 9.449151,1.49939 14.350502,-3.07276 3.107362,-2.89865 -0.192755,-19.31014 -0.192755,-19.31014 l 19.991446,-7.50298 18.500303,7.83693 c 0,0 -4.7837,14.58659 -0.96809,18.90175 4.44004,5.02134 15.2652,2.43821 15.2652,2.43821 0,0 -1.21347,1.10342 -1.84936,1.62059 -10.54058,8.57267 -19.76094,11.26513 -30.739367,11.62667 -12.233027,0.40287 -25.671993,-4.35516 -32.758116,-11.37732 -0.467999,-0.46377 -1.599763,-1.16095 -1.599763,-1.16095 z"
       id="path12-0"
       sodipodi:nodetypes="cscccscsssc" /><path
       style="font-variation-settings:normal;vector-effect:none;fill:#909ce1;fill-opacity:1;stroke:none;stroke-width:0.5;stroke-linecap:round;stroke-linejoin:round;stroke-miterlimit:4;stroke-dasharray:none;stroke-dashoffset:0;stroke-opacity:1;-inkscape-stroke:none;stop-color:#000000"
       d="m 81.787305,66.388379 c 0,0 3.952683,-0.75116 8.664878,-0.76296 4.788299,-0.01199 8.75293,0.794082 8.75293,0.794082 l -4.16536,9.958813 -1.879029,14.701233 -4.890208,0.94042 c 0,0 -0.332897,-9.974988 -2.571134,-15.710351 -1.088826,-2.790057 -3.912077,-9.921238 -3.912077,-9.921237 z"
       id="path60"
       sodipodi:nodetypes="csccccsc" /><path
       style="fill:#909ce1;fill-opacity:1;stroke:none;stroke-width:0.5;stroke-linecap:round;stroke-linejoin:round;stroke-dasharray:none;stroke-opacity:0.8"
       d="m 87.909342,89.503077 c -0.02449,-0.0923 -0.435856,0.24321 -0.462903,0.15455 -0.38133,-1.250044 -1.373641,-2.845322 -2.650653,-3.791432 -2.039109,-1.510731 -10.841749,-6.271185 -17.206996,4.587532 -0.0443,0.0756 6.075422,-4.741455 9.2627,-4.230846 7.030994,1.12638 7.19557,7.487016 6.90007,7.723616 -0.36923,0.29563 -7.407452,-8.294469 -14.771718,1.06959 -0.396944,0.610151 10.236388,-1.9971 13.874208,-0.29765 -6.69626,4.41014 -11.28295,1.70635 -16.52726,3.52378 -2.98209,1.03345 -4.09992,4.079993 -4.50839,4.807723 -2.00514,3.57235 0.37359,10.11195 0.15456,9.5414 -1.40902,-2.78275 -7.91962,-4.06025 -5.00692,5.6805 1.94866,6.92809 5.99711,7.14762 7.24524,5.074 0.78374,-1.3021 6.07288,8.16502 10.30429,8.2269 4.61445,0.0675 7.1367,-3.77845 10.90698,-4.34584 1.57041,-0.34648 7.6091,-0.31604 9.74138,-0.18111 3.92962,0.24868 6.95507,4.76152 11.73815,4.4422 5.22781,-0.34901 7.85621,-8.73521 9.3521,-7.50787 0.22834,0.18735 3.88189,4.62055 7.74877,-6.55541 3.09661,-8.94974 -4.5365,-7.43301 -5.2274,-4.91331 -1.27614,1.64391 3.65745,-9.27176 -3.45157,-13.586883 -4.25541,-2.58301 -8.90527,0.95648 -17.48732,-4.16163 -1.10771,-0.66061 7.54949,-1.5468 12.61506,0.84467 0.64056,0.30241 -0.58304,-1.132 -0.91332,-1.64157 -1.64578,-2.5392 -4.10409,-4.08289 -7.8831,-3.22657 -1.904277,0.43151 -3.6806,1.44138 -4.81892,3.00866 -1.28482,-2.40588 2.535463,-6.886966 6.05431,-7.413616 3.23076,-0.48353 7.18911,0.88464 9.90969,4.358676 -0.44036,-2.264846 -2.69964,-5.500336 -6.12485,-6.517516 -2.45458,-0.728934 -6.799647,-0.848398 -10.238463,1.369648 -0.510503,0.329276 -2.275923,1.432156 -3.320651,4.118888"
       id="path2"
       sodipodi:nodetypes="csscscccccccsscssccccccsscscssc" /><g
       id="g7"
       transform="matrix(0.73455033,0,0,0.6688137,-152.52182,12.770332)"
       style="font-variation-settings:normal;vector-effect:none;fill:#6c74b7;fill-opacity:1;stroke:#5867c3;stroke-width:0.713357;stroke-linecap:round;stroke-linejoin:round;stroke-miterlimit:4;stroke-dasharray:none;stroke-dashoffset:0;stroke-opacity:1;-inkscape-stroke:none;stop-color:#000000"><g
         id="g8"
         transform="matrix(0.92026494,0,0,0.85676273,26.77878,22.113156)"
         style="font-variation-settings:normal;vector-effect:none;fill:#6c74b7;fill-opacity:1;stroke:#5867c3;stroke-width:0.803378;stroke-linecap:round;stroke-linejoin:round;stroke-miterlimit:4;stroke-dasharray:none;stroke-dashoffset:0;stroke-opacity:1;-inkscape-stroke:none;stop-color:#000000;stop-opacity:1"><path
           style="font-variation-settings:normal;opacity:1;vector-effect:none;fill:#6c74b7;fill-opacity:1;stroke:#475195;stroke-width:0.803378;stroke-linecap:round;stroke-linejoin:round;stroke-miterlimit:4;stroke-dasharray:none;stroke-dashoffset:0;stroke-opacity:1;-inkscape-stroke:none;stop-color:#000000;stop-opacity:1"
           d="m 318.58193,148.17762 c 0,0 6.72376,-5.96009 8.81361,-5.9498 1.01527,0.005 2.17663,0.63202 2.81145,0.60933 0.90772,-0.0325 1.99063,-0.90403 3.24368,-0.50996 0.84059,0.26435 7.44429,4.94141 8.33395,5.77435 -6.3006,3.70531 -16.7848,3.82801 -23.20269,0.0758 z"
           id="path6"
           sodipodi:nodetypes="csssccc" /><path
           style="font-variation-settings:normal;opacity:1;vector-effect:none;fill:#6c74b7;fill-opacity:1;stroke:#475195;stroke-width:0.803378;stroke-linecap:round;stroke-linejoin:round;stroke-miterlimit:4;stroke-dasharray:none;stroke-dashoffset:0;stroke-opacity:1;-inkscape-stroke:none;stop-color:#000000;stop-opacity:1"
           d="m 318.97393,148.11136 c 0,0 10.80247,-4.19313 22.45074,0.0533"
           id="path7"
           sodipodi:nodetypes="cc" /></g></g><path
       style="fill:#88cad1;fill-opacity:1;stroke:#505997;stroke-width:0.4;stroke-linecap:round;stroke-linejoin:round;stroke-dasharray:none;stroke-dashoffset:0;stroke-opacity:1"
       d="m 93.323751,101.96533 c -0.730793,0.61452 -1.387672,-0.0868 -2.011454,-0.066 -0.416538,-0.0369 -0.567372,0.29096 -0.832177,0.34128 -0.166314,0.0316 -0.283511,0.0394 -0.448162,1e-5 -0.244391,-0.0584 -0.28451,-0.29232 -0.651996,-0.34128 -0.623787,-0.0208 -1.280667,0.68052 -2.011469,0.066"
       id="path16-5"
       sodipodi:nodetypes="ccsscc" /><path
       style="font-variation-settings:normal;opacity:0.541063;vector-effect:none;fill:#d5daf4;fill-opacity:1;stroke:#e2e6f9;stroke-width:0.600001;stroke-linecap:round;stroke-linejoin:round;stroke-miterlimit:4;stroke-dasharray:none;stroke-dashoffset:0;stroke-opacity:1;-inkscape-stroke:none;stop-color:#000000"
       d="m 103.05161,111.24271 c 1.64129,6.94133 -3.911869,7.59433 -12.771556,7.63697 -8.66815,0.0417 -13.67608,-1.75942 -12.55529,-7.5357 0.83158,-4.28581 3.39065,-7.52555 4.62684,-9.24823 1.67352,-2.332123 5.048644,-6.346933 5.559034,-12.271003 -0.97828,-5.15281 -2.563432,-13.207732 -15.006344,-20.342847 -0.775476,-0.44468 7.343709,-4.077868 17.752113,-4.115518 10.582843,-0.03828 18.953553,4.269639 17.119753,4.009909 -7.10371,4.89768 -7.991887,6.698029 -12.07177,12.166306 -3.496776,4.68674 -3.093059,8.44774 -3.053179,9.26203 0.45956,5.93043 3.767223,8.77089 5.800123,11.246973 1.289789,1.57096 3.534316,4.68294 4.600276,9.19111 z"
       id="path20-7-1"
       sodipodi:nodetypes="sssscsscscss" /><g
       id="g63"
       style="stroke:#2f3a80;stroke-opacity:1"
       transform="translate(0.22064704,0.3841676)"><path
         style="opacity:1;fill:none;fill-opacity:1;stroke:#2f3a80;stroke-width:1.2;stroke-linecap:round;stroke-linejoin:round;stroke-dasharray:none;stroke-dashoffset:0;stroke-opacity:1"
         d="m 90.122435,111.37493 c 0,0 -4.370185,3.52903 -4.718249,12.55802 -0.401711,10.42062 3.309629,18.78765 10.609632,24.04415 7.547192,5.4345 20.772422,10.18069 29.887072,1.41601 6.43438,-6.18732 11.3867,-17.40501 11.3867,-17.40501"
         id="path15"
         sodipodi:nodetypes="csssc" /><path
         style="font-variation-settings:normal;opacity:0.8;vector-effect:none;fill:none;fill-opacity:1;stroke:#2f3a80;stroke-width:1;stroke-linecap:round;stroke-linejoin:round;stroke-miterlimit:4;stroke-dasharray:none;stroke-dashoffset:0;stroke-opacity:1;-inkscape-stroke:none;stop-color:#000000;stop-opacity:1"
         d="m 90.174139,111.48248 c 0,0 -3.711942,3.35985 -4.035748,11.75943 -0.373707,9.69421 3.078936,17.47797 9.870056,22.36806 3.748114,2.69891 10.528003,5.29465 17.634693,5.05256 4.48725,-0.15286 10.10187,-0.94603 14.34144,-3.677 1.26507,-0.81491 4.30255,-6.21933 5.10883,-7.15206"
         id="path15-7"
         sodipodi:nodetypes="cssssc" /><path
         style="font-variation-settings:normal;opacity:0.6;vector-effect:none;fill:none;fill-opacity:1;stroke:#2f3a80;stroke-width:1;stroke-linecap:round;stroke-linejoin:round;stroke-miterlimit:4;stroke-dasharray:none;stroke-dashoffset:0;stroke-opacity:1;-inkscape-stroke:none;stop-color:#000000;stop-opacity:1"
         d="m 90.201178,111.443 c 0,0 -3.168543,3.11031 -3.469527,10.91785 -0.347366,9.01092 3.27832,16.07947 9.174365,20.79144 2.943197,2.35213 10.121264,4.56057 17.013384,4.58878 7.25784,0.0297 15.03322,-2.59118 18.58001,-5.82233 1.69939,-1.60488 4.72453,-7.78728 4.94609,-8.04358"
         id="path15-7-4"
         sodipodi:nodetypes="cssscc" /><path
         style="font-variation-settings:normal;opacity:0.4;vector-effect:none;fill:none;fill-opacity:1;stroke:#2f3a80;stroke-width:0.6;stroke-linecap:round;stroke-linejoin:round;stroke-miterlimit:4;stroke-dasharray:none;stroke-dashoffset:0;stroke-opacity:1;-inkscape-stroke:none;stop-color:#000000;stop-opacity:1"
         d="m 90.352418,111.58802 c 0,0 -2.609369,2.62763 -2.888956,9.87997 -0.322659,8.37015 2.658422,15.09075 8.521972,19.31294 2.944262,2.12008 11.237366,4.73705 19.129006,4.14608 8.35689,-0.62582 16.28628,-4.15305 20.01165,-9.15146"
         id="path15-7-4-5"
         sodipodi:nodetypes="csssc" /></g><ellipse
       style="font-variation-settings:normal;vector-effect:none;fill:#ffffff;fill-opacity:1;stroke:none;stroke-width:0.521186;stroke-linecap:round;stroke-linejoin:round;stroke-miterlimit:4;stroke-dasharray:none;stroke-dashoffset:0;stroke-opacity:0.8;-inkscape-stroke:none;filter:url(#filter107-1)"
       id="path107-6"
       cx="137.62022"
       cy="131.89844"
       rx="1.886"
       ry="1.8935705" /><circle
       style="font-variation-settings:normal;vector-effect:none;fill:#ffffff;fill-opacity:1;stroke:none;stroke-width:0.496172;stroke-linecap:round;stroke-linejoin:round;stroke-miterlimit:4;stroke-dasharray:none;stroke-dashoffset:0;stroke-opacity:0.8;-inkscape-stroke:none;filter:url(#filter107-1)"
       id="path108-2"
       cx="137.62022"
       cy="131.89844"
       r="1.75" /><path
       style="opacity:0.8;fill:none;fill-opacity:1;stroke:#475194;stroke-width:1;stroke-linecap:round;stroke-linejoin:round;stroke-dasharray:none;stroke-dashoffset:0;stroke-opacity:1"
       d="m 87.701565,88.858687 c 0,0 -2.417774,-15.801818 -8.607656,-21.421251"
       id="path17"
       sodipodi:nodetypes="cc" /><path
       style="opacity:0.6;fill:none;fill-opacity:1;stroke:#5e69a9;stroke-width:0.8;stroke-linecap:round;stroke-linejoin:round;stroke-dasharray:none;stroke-dashoffset:0;stroke-opacity:1"
       d="m 87.780756,89.681577 c 0,0 -2.538141,-15.567699 -11.68689,-21.454598"
       id="path19"
       sodipodi:nodetypes="cc" /><path
       style="opacity:0.8;fill:none;fill-opacity:1;stroke:#475194;stroke-width:1;stroke-linecap:round;stroke-linejoin:round;stroke-dasharray:none;stroke-dashoffset:0;stroke-opacity:1"
       d="m 92.89649,88.987987 c 0,0 1.645724,-14.109749 8.70839,-21.537103"
       id="path17-3"
       sodipodi:nodetypes="cc" /><path
       style="opacity:0.6;fill:none;fill-opacity:1;stroke:#5e69a9;stroke-width:0.8;stroke-linecap:round;stroke-linejoin:round;stroke-dasharray:none;stroke-dashoffset:0;stroke-opacity:1"
       d="m 92.824431,89.616987 c 0,0 2.597118,-15.564043 11.925309,-21.405525"
       id="path19-7"
       sodipodi:nodetypes="cc" /><path
       style="opacity:0.4;fill:none;fill-opacity:1;stroke:#757fbe;stroke-width:0.7;stroke-linecap:round;stroke-linejoin:round;stroke-dasharray:none;stroke-dashoffset:0;stroke-opacity:1"
       d="m 92.869611,89.203517 c 0,0 2.449406,-13.106804 15.240299,-19.868066"
       id="path19-7-5"
       sodipodi:nodetypes="cc" /><path
       style="opacity:0.4;fill:none;fill-opacity:1;stroke:#757fbe;stroke-width:0.7;stroke-linecap:round;stroke-linejoin:round;stroke-dasharray:none;stroke-dashoffset:0;stroke-opacity:1"
       d="m 87.822029,89.203517 c 0,0 -2.413055,-12.912346 -14.956222,-19.715987 -0.0941,-0.05104 -0.188762,-0.101735 -0.284001,-0.152079"
       id="path19-7-5-7"
       sodipodi:nodetypes="csc" /><path
       style="fill:none;fill-opacity:1;stroke:#2f3a80;stroke-width:1.2;stroke-linecap:round;stroke-linejoin:round;stroke-miterlimit:4;stroke-dasharray:none;stroke-dashoffset:0;stroke-opacity:1"
       d="m 92.77429,89.503937 c 0,0 -0.563851,-9.237122 6.403133,-22.4961"
       id="path59-1"
       sodipodi:nodetypes="cc" /><path
       style="fill:none;fill-opacity:1;stroke:#2f3a80;stroke-width:1.2;stroke-linecap:round;stroke-linejoin:round;stroke-miterlimit:4;stroke-dasharray:none;stroke-dashoffset:0;stroke-opacity:1"
       d="m 87.752171,89.495127 c 0,0 0.201634,-11.789915 -6.105336,-22.540762"
       id="path59"
       sodipodi:nodetypes="cc" /></g></svg>
